<svg width="429.00000000000006" fill="white" xmlns="http://www.w3.org/2000/svg" height="80.32047758772697" viewBox="0 0 369.6666666666667 69.21166250566372" class="looka-1j8o68f"><defs id="SvgjsDefs1354"></defs><g id="SvgjsG1355"  featurekey="G09qjj-0" transform="matrix(0.38795772956168517,0,0,0.38795772956168517,-7.3711968616720185,-9.892924323734906)" ill="white"><g xmlns="http://www.w3.org/2000/svg"><path fill-rule="evenodd" clip-rule="evenodd" fill="white" d="M231.4,177c-0.4-0.3-0.8-0.6-1.2-0.9c-0.5-0.3-1-0.6-1.6-0.9   c-1.2-0.7-2.6-1.5-4.2-2.1c-3.2-1.5-7.4-2.8-12.4-3.6c-5-0.8-10.8-0.9-17-0.1c-3.1,0.4-6.3,1.2-9.6,2.2c-0.8,0.3-1.6,0.6-2.5,0.9   c-0.8,0.4-1.6,0.8-2.5,1.2c-0.8,0.4-1.6,1-2.4,1.4c-0.8,0.5-1.6,1.2-2.4,1.9c-2.7,2.6-4.7,5.3-6.8,8c-2.1,2.7-4.2,5.4-6.5,7.7   c-1.1,1.1-2.3,2.1-3.2,2.5c-0.1-0.2-0.3-0.5-0.5-0.8c-0.1-0.2-0.3-0.6-0.4-0.9l-0.6-1.2c-0.8-1.9-1.9-3.8-3-5.5   c-2.3-3.5-5.2-6.7-8.6-9.5c-1.8-1.4-3.7-2.7-5.9-3.8c-2.2-1.1-4.7-2-7.8-2.3c-1.6-0.1-3.3-0.1-5.1,0.4c-1.8,0.5-3.6,1.4-5,2.7   c-0.7,0.6-1.3,1.3-1.8,1.9l-0.9,1.1l-1.8,2.2c-2.3,2.9-4.6,5.7-6.9,7.9c-0.3,0.3-0.6,0.6-0.9,0.8c-0.1-0.1-0.1-0.2-0.2-0.3   l-0.4-0.4c-0.5-0.5-1-1-1.5-1.5l-0.8-0.7c-0.3-0.2-0.5-0.4-0.8-0.6l-1.6-1.1c-1.1-0.7-2.3-1.3-3.4-1.9c-4.8-2.1-9.9-2.6-14.1-2.4   c-4.3,0.2-8.2,0.9-11.8,1.8c-7.1,1.7-13.2,3.9-18.7,5.8c-5.5,1.9-10.5,3.4-14.9,4.3c-4.4,1-8.3,1.3-11.6,1.2   c-0.8,0-1.6-0.1-2.3-0.2l41.8-21c2.5,0,4.6-2.1,4.6-4.6l-0.2-0.2L177.7,62.9l-4.6-4.6l9.6-9.7c2-2,2-5.3,0-7.3l-10.9-11   c-2-2-5.3-2-7.3,0l-9.6,9.7l-5.3-5.3l-4.1-4.3l0,0l-4.7-4.9L80.4,86.1l2.1,2.2l10.8-5.6l47.9-48l3.9,4.1L46.9,139.3l-0.4-0.4   c-2.5,0-4.6,2.1-4.6,4.6L19,189.7c0,0.5,0.1,1,0.2,1.4l-0.2,0.3c0,0,0.2,0.2,0.6,0.5c0.6,1.2,1.8,2,3.1,2.3   c1.5,0.9,3.6,2.1,6.3,2.9c3.6,1.2,8.3,2,13.5,1.9c5.2,0,11.1-0.7,17.1-1.8c6-1,12.4-2.5,18.7-3.4c6.3-1,12.6-1.2,16.5,0.5   c0.5,0.3,1,0.4,1.4,0.7c0.4,0.3,1,0.6,1.2,0.9c0.1,0.1,0.3,0.3,0.5,0.4l0.1,0.1c0,0,0.1,0.2,0.2,0.2l0.5,0.5l0.9,1l0.1,0.1l0.1,0.1   c-0.5-0.7-0.1-0.1-0.2-0.2l0.5,0.6l0.5,0.6l0.6,0.6l0.7,0.6c0.3,0.2,0.6,0.4,0.8,0.6c0.5,0.4,1.2,0.7,1.9,1   c1.4,0.6,3.1,0.8,4.5,0.7c2.9-0.2,4.8-1.2,6.2-2c2.8-1.7,4.3-3.4,5.8-5.1c2.9-3.3,5-6.6,7.1-9.8l1.5-2.4l0.8-1.2   c0.1-0.2,0.1-0.2,0.1-0.2c0-0.1,0-0.1,0.1-0.1c0.1-0.1,0.4-0.1,0.8-0.1c0.9,0,2.2,0.3,3.6,0.9c1.3,0.6,2.7,1.4,4.1,2.3   c2.6,1.9,5,4.2,7,6.9c1,1.3,1.8,2.6,2.6,4l0.6,1.2c0.3,0.5,0.5,1,0.9,1.6c0.4,0.5,0.7,1,1.2,1.6c0.4,0.5,1,1.1,1.6,1.6   c0.7,0.5,1.5,1.1,2.6,1.4c0.5,0.2,1,0.3,1.6,0.4c0.6,0.1,1.1,0.1,1.7,0.1c2.2-0.1,3.8-0.9,4.9-1.6c2.3-1.5,3.7-3,5-4.5   c2.5-3,4.5-6,6.4-8.8c1.9-2.8,3.7-5.6,5.5-7.8c1.6-1.8,4.3-3.4,7-4.5c2.7-1.1,5.5-2.1,8.3-2.6c5.5-1.2,10.9-1.5,15.5-1.2   c1.2,0,2.3,0.2,3.4,0.4c1.1,0.2,2.1,0.3,3.1,0.5c1,0.2,1.9,0.4,2.9,0.6c0.9,0.2,1.7,0.5,2.5,0.8c1.6,0.5,3,1.1,4.1,1.6   c0.6,0.3,1.2,0.5,1.7,0.7c0.5,0.3,0.9,0.5,1.3,0.8c1.6,0.9,2.4,1.4,2.4,1.4l0.8-1.1C233.7,178.6,232.9,178,231.4,177z M107.9,189.6   c-0.2,0.1-0.2,0,0.2-0.1C108,189.5,107.9,189.5,107.9,189.6z M158.5,195.4c0,0,0.1,0,0.1,0C158.4,195.5,158.3,195.4,158.5,195.4z"></path></g></g><g id="SvgjsG1356" featurekey="0yvIkK-0" transform="matrix(3.3823779687126425,0,0,3.3823779687126425,102.18823167451734,-15.506004874400134)" ill="white"><path d="M11.24 5.84 l0 1.2 l-4.84 0 l0 12.96 l-1.32 0 l0 -12.96 l-4.84 0 l0 -1.2 l11 0 z M13.08 4.880000000000001 l1.2 0 l0 7.5 l0.04 0 q0.4 -0.86 1.27 -1.36 t1.89 -0.5 q3.52 0 3.52 3.9 l0 5.58 l-1.2 0 l0 -5.46 q0 -2.94 -2.32 -2.94 q-1.5 0 -2.35 1.03 t-0.85 2.71 l0 4.66 l-1.2 0 l0 -15.12 z M31.44 14.6 q0 -1.26 -0.94 -2.13 t-2.28 -0.87 q-1.3 0 -2.24 0.87 t-1.1 2.13 l6.56 0 z M28.3 10.52 q1.92 0 3.12 1.24 t1.22 3.2 l0 0.72 l-7.76 0 q0.08 1.56 1.03 2.51 t2.47 0.97 q0.94 0 1.79 -0.45 t1.31 -1.19 l0.88 0.74 q-1.3 1.98 -4 1.98 q-2.12 -0.02 -3.39 -1.38 t-1.29 -3.5 q0 -2.08 1.31 -3.45 t3.31 -1.39 z M45.300000000000004 18.8 q1.7 0 2.6 -0.73 t0.9 -1.99 q0 -1.36 -0.93 -2.14 t-2.43 -0.78 l-3.26 0 l0 5.64 l3.12 0 z M45 11.96 q1.44 0 2.31 -0.62 t0.87 -1.76 q0 -2.48 -3 -2.54 l-3 0 l0 4.92 l2.82 0 z M45.04 5.84 q2.22 0 3.33 0.9 t1.13 2.84 q0 1.12 -0.66 1.91 t-1.88 1.03 l0 0.04 q1.38 0.08 2.26 1.04 t0.9 2.44 q0 1.88 -1.25 2.91 t-3.45 1.05 l-4.56 0 l0 -14.16 l4.18 0 z M53.32 4.880000000000001 l1.2 0 l0 15.12 l-1.2 0 l0 -15.12 z M58.6 15.379999999999999 q0 1.66 1.04 2.72 t2.62 1.06 q1.64 0 2.65 -1.08 t1.01 -2.7 q0 -1.6 -1 -2.68 t-2.68 -1.1 q-1.62 0 -2.62 1.08 t-1.02 2.7 z M62.26 10.52 q2.12 0 3.48 1.38 t1.38 3.48 q0 2.14 -1.39 3.49 t-3.47 1.37 q-2.18 -0.02 -3.51 -1.4 t-1.35 -3.46 q0 -2.14 1.37 -3.49 t3.49 -1.37 z M70.60000000000001 15.26 q0 1.52 1.07 2.57 t2.59 1.09 q1.5 0 2.56 -1.06 t1.1 -2.6 q0 -1.52 -1.08 -2.58 t-2.6 -1.08 q-1.52 0 -2.58 1.09 t-1.06 2.57 z M74.34 10.52 q2.36 0.02 3.5 1.8 l0.04 0 l0 -1.56 l1.2 0 l0 8.6 q0 2.7 -1.3 4.07 t-3.64 1.37 q-1.4 0 -2.62 -0.51 t-1.94 -1.43 l0.94 -0.88 q1.24 1.74 3.64 1.74 q3.72 0 3.72 -4.14 l0 -1.38 l-0.04 0 q-1.12 1.76 -3.5 1.8 q-2 0 -3.44 -1.37 t-1.5 -3.37 q0 -1.96 1.47 -3.34 t3.47 -1.4 z"></path></g></svg>